<svg preserveAspectRatio="none" overflow="visible" style="display: block;" width="25.6667" height="23.3333" viewBox="0 0 25.6667 23.3333" fill="none" xmlns="http://www.w3.org/2000/svg">
<g id="Group">
<path id="Vector" d="M17.5 22.1667V19.8333C17.5 17.2577 15.4089 15.1667 12.8333 15.1667H5.83333C3.25773 15.1667 1.16667 17.2577 1.16667 19.8333V22.1667M17.5 1.316C19.5582 1.84959 20.9956 3.70705 20.9956 5.83333C20.9956 7.95962 19.5582 9.81707 17.5 10.3507M24.5 22.1667V19.8333C24.4984 17.7066 23.0592 15.85 21 15.3183" stroke="#D6002E" stroke-width="2.33333" stroke-linecap="round" stroke-linejoin="round"/>
<path id="Vector_2" d="M4.66667 5.83333C4.66667 8.40894 6.75773 10.5 9.33333 10.5C11.9089 10.5 14 8.40894 14 5.83333C14 3.25773 11.9089 1.16667 9.33333 1.16667C6.75773 1.16667 4.66667 3.25773 4.66667 5.83333H4.66667" stroke="#D6002E" stroke-width="2.33333" stroke-linecap="round" stroke-linejoin="round"/>
</g>
</svg>
